<svg xmlns="http://www.w3.org/2000/svg" xmlns:xlink="http://www.w3.org/1999/xlink" width="576" height="576" viewBox="0 0 576 576">
  <defs>
    <clipPath id="clip-path">
      <circle id="Ellipse_20" data-name="Ellipse 20" cx="288" cy="288" r="288" transform="translate(1986 5360)" fill="#fff" stroke="#707070" stroke-width="1"/>
    </clipPath>
  </defs>
  <g id="Mask_Group_2" data-name="Mask Group 2" transform="translate(-1986 -5360)" clip-path="url(#clip-path)">
    <g id="Group_135" data-name="Group 135" transform="translate(2017.8 5453.884)">
      <path id="Path_148" data-name="Path 148" d="M406.6,338.2a410,410,0,0,0-71.7-20.9,14.1,14.1,0,0,0-14.4,6L256,419l-64.5-95.7a14.276,14.276,0,0,0-14.4-6h0a410,410,0,0,0-71.7,20.9C74.2,350.5,53.2,382,53.2,416.6v79.3A14.084,14.084,0,0,0,67.3,510H444.7a14.084,14.084,0,0,0,14.1-14.1V416.6C458.8,382,437.8,350.5,406.6,338.2Zm24,143.6H81.4V416.6c0-23.1,13.8-44.1,34.3-52.2a373.877,373.877,0,0,1,57.6-17.5l70.9,105.2a14.108,14.108,0,0,0,23.4,0l70.9-105.2a385.23,385.23,0,0,1,57.6,17.5c20.5,8.1,34.3,29,34.3,52.2v65.2Z" fill="#004f76"/>
      <path id="Path_149" data-name="Path 149" d="M155.4,234.1a106.317,106.317,0,0,0,204.3,1.1c63.1-131.9,5.8-188.6-.8-194.4C328.3,11.2,297.9-1.5,268.6,3c-31.4,4.8-51.7,28.3-60.4,40.6-35.1.1-59.8,11.2-73.6,33.1-33.1,52.4,10.9,136.8,20.6,157.2C155.3,233.8,155.4,233.9,155.4,234.1Zm102.3,49.1a77.934,77.934,0,0,1-78-77.2c1.4-19.5,10.8-38,26.7-51.5A181.594,181.594,0,0,0,235,124c25.1,15.1,68.7,26.4,84.2,30.1,14,3,15.2,50.1,7,88.9A78.08,78.08,0,0,1,257.7,283.2ZM158.5,91.6c8.4-13.2,25.3-21,56.8-19.8h0a14.188,14.188,0,0,0,13-7.3h0c.2-.3,16.7-29.4,44.6-33.7,20.2-3.1,42.6,7.2,66.6,30.4l.7.7c.4.4,32.5,28.6,16,100.3-4.3-17.6-13.4-31.9-30.9-35.6-34.5-8.3-75.9-23-82.6-31.7h0a14.111,14.111,0,0,0-23.6,1.9h0c-.1.2-10.2,18.7-30.9,36.2a105.116,105.116,0,0,0-28.5,37.8C151.1,142.9,146.3,111,158.5,91.6Z" fill="#004f76"/>
      <path id="Path_150" data-name="Path 150" d="M378.3,424H335.8a14.1,14.1,0,0,0,0,28.2h42.5a14.1,14.1,0,0,0,0-28.2Z" fill="#004f76"/>
    </g>
  </g>
</svg>
