<!-- Generator: Adobe Illustrator 24.0.0, SVG Export Plug-In  -->
<svg version="1.1" xmlns="http://www.w3.org/2000/svg" xmlns:xlink="http://www.w3.org/1999/xlink" x="0px" y="0px" width="98.8px"
   height="96.9px" viewBox="0 0 98.8 96.9" style="enable-background:new 0 0 98.8 96.9;" xml:space="preserve">
<style type="text/css">
  .st0{fill:none;stroke:#4BA82E;stroke-width:3;stroke-linecap:round;stroke-miterlimit:10;}
  .st1{fill:none;stroke:#4BA82E;stroke-width:3;stroke-linecap:round;stroke-linejoin:round;stroke-miterlimit:10;}
  .st2{fill:none;stroke:#4BA82E;stroke-width:3;stroke-miterlimit:10;}
  .st3{fill:none;stroke:#4A4A4A;stroke-width:3;stroke-miterlimit:10;}
  .st4{fill:#F3F3F3;stroke:#4A4A4A;stroke-width:3;stroke-miterlimit:10;}
  .st5{fill:#4A4A4A;}
</style>
<defs>
</defs>
<line class="st0" x1="33.7" y1="29.4" x2="33.7" y2="22.9"/>
<line class="st0" x1="21.8" y1="34.3" x2="18.8" y2="31.3"/>
<g>
  <path class="st1" d="M29.6,55.5c0,0,1.2-2.6,4.1-2.6s4.1,2.6,4.1,2.6"/>
  <g>
    <path class="st1" d="M27.2,47.5c0,0-0.6,1.7-2.1,1.7c-1.5,0-2.1-1.7-2.1-1.7"/>
    <path class="st1" d="M44.5,47.5c0,0-0.6,1.7-2.1,1.7c-1.5,0-2.1-1.7-2.1-1.7"/>
  </g>
</g>
<path class="st2" d="M60.9,34.1c-2.8,0-5,2.2-5,5c0,10-1.4,10-5.4,10c0,0,0,0,0,0v-3c0-9.3-7.5-16.8-16.8-16.8h0
  c-9.3,0-16.8,7.5-16.8,16.8v3c0,0,0,0,0,0c-4,0-5.4,0-5.4-10c0-2.8-2.2-5-5-5s-5,2.2-5,5c0,7,0,20,15.4,20c0,0,0,0,0,0v8.1h33.6
  v-8.1c0,0,0,0,0,0c15.4,0,15.4-13,15.4-20C65.9,36.4,63.7,34.1,60.9,34.1z"/>
<path class="st3" d="M42.8,95.4H24.6c-2,0-3.8-1.3-4.4-3.3l-5.3-17h37.6l-5.3,17C46.7,94,44.9,95.4,42.8,95.4z"/>
<path class="st3" d="M54.7,75.1h-42c-1,0-1.8-0.8-1.8-1.8v-4.3c0-1,0.8-1.8,1.8-1.8h42c1,0,1.8,0.8,1.8,1.8v4.3
  C56.5,74.3,55.7,75.1,54.7,75.1z"/>
<path class="st4" d="M93.9,39.8H43.6c-1.9,0-3.4-1.5-3.4-3.4V4.9c0-1.9,1.5-3.4,3.4-3.4h50.3c1.9,0,3.4,1.5,3.4,3.4v31.5
  C97.3,38.3,95.8,39.8,93.9,39.8z"/>
<g>
  <path class="st5" d="M49,22h2.1c0,0.8,0.4,1,1.4,1c1.1,0,1.4-0.2,1.4-0.7c0-0.4-0.4-0.6-1.3-0.8l-0.8-0.1c-1.7-0.3-2.8-1-2.8-2.6
    c0-1.6,1.1-2.6,3.5-2.6c2.7,0,3.4,1.3,3.4,2.8H54c0-0.6-0.4-1-1.3-1c-1.1,0-1.3,0.2-1.3,0.7c0,0.4,0.3,0.6,1.4,0.8l0.8,0.1
    c1.6,0.3,2.8,0.9,2.8,2.5c0,1.7-1.1,2.7-3.7,2.7C49.9,24.8,49,23.7,49,22z"/>
  <path class="st5" d="M56.7,20.5c0-2.5,2.1-4.4,4.6-4.4s4.6,1.9,4.6,4.4s-2.1,4.4-4.6,4.4S56.7,22.9,56.7,20.5z M63.8,20.5
    c0-1.4-1.1-2.4-2.4-2.4s-2.4,1.1-2.4,2.4c0,1.4,1.1,2.4,2.4,2.4S63.8,21.8,63.8,20.5z"/>
  <path class="st5" d="M69.9,21.9h-1.1v2.8h-2.1v-8.4h3.9c1.7,0,2.9,1.2,2.9,2.8c0,1.1-0.6,2-1.6,2.4l2.1,3.2h-2.4L69.9,21.9z
     M68.8,20.1h1.5c0.6,0,1.1-0.4,1.1-1.1s-0.5-1-1.1-1h-1.5V20.1z"/>
  <path class="st5" d="M77.9,21.9h-1.1v2.8h-2.1v-8.4h3.9c1.7,0,2.9,1.2,2.9,2.8c0,1.1-0.6,2-1.6,2.4l2.1,3.2h-2.4L77.9,21.9z
     M76.8,20.1h1.5c0.6,0,1.1-0.4,1.1-1.1s-0.5-1-1.1-1h-1.5V20.1z"/>
  <path class="st5" d="M90.1,16.3l-3.2,5.3v3.2h-2.1v-3.2l-3.2-5.3h2.4l1.9,3.2l1.8-3.2H90.1z"/>
</g>
</svg>
